<svg width="500" height="500" viewBox="0 0 500 500" fill="none" xmlns="http://www.w3.org/2000/svg">
<g clip-path="url(#clip0_128_2)">
<rect width="500" height="500" fill="white"/>
<path d="M129.842 364.243V267.344L192.024 95.5176H253.548L129.842 364.243ZM86.5557 415V95.5176H141.048V415H86.5557ZM203.89 415L149.837 240.537L187.19 207.798L263.655 415H203.89ZM342.098 418.296C325.984 418.296 312.215 415.146 300.789 408.848C289.363 402.402 280.574 393.101 274.422 380.942C268.416 368.784 265.413 354.136 265.413 336.997V173.521C265.413 156.235 268.416 141.587 274.422 129.575C280.574 117.417 289.363 108.188 300.789 101.89C312.215 95.4443 325.984 92.2217 342.098 92.2217C358.357 92.2217 372.2 95.4443 383.626 101.89C395.052 108.188 403.768 117.417 409.773 129.575C415.779 141.733 418.782 156.455 418.782 173.74V199.448H363.631V173.74C363.631 168.32 362.825 163.706 361.214 159.897C359.603 155.942 357.186 152.866 353.963 150.669C350.74 148.472 346.785 147.373 342.098 147.373C335.506 147.373 330.306 149.717 326.497 154.404C322.688 158.945 320.784 165.317 320.784 173.521V336.997C320.784 345.2 322.688 351.572 326.497 356.113C330.306 360.654 335.506 362.925 342.098 362.925C349.129 362.925 354.476 360.654 358.138 356.113C361.8 351.426 363.631 344.98 363.631 336.777V311.069H418.782V336.777C418.782 354.062 415.779 368.784 409.773 380.942C403.768 393.101 395.052 402.402 383.626 408.848C372.2 415.146 358.357 418.296 342.098 418.296Z" fill="black"/>
</g>
<defs>
<clipPath id="clip0_128_2">
<rect width="500" height="500" fill="white"/>
</clipPath>
</defs>
</svg>
