<svg xmlns="http://www.w3.org/2000/svg" xmlns:xlink="http://www.w3.org/1999/xlink" viewBox="0,0,256,256" width="" height=""><g fill="#ffffff" fill-rule="nonzero" stroke="none" stroke-width="1" stroke-linecap="butt" stroke-linejoin="miter" stroke-miterlimit="10" stroke-dasharray="" stroke-dashoffset="0" font-family="none" font-weight="none" font-size="none" text-anchor="none" style="mix-blend-mode: normal"><g transform="scale(2.56,2.56)"><path d="M21,20c-5.51133,0 -10,4.48867 -10,10v44c0,3.30163 2.69838,6 6,6h13c0.55226,-0.00006 0.99994,-0.44774 1,-1v-28.9082l18.40039,13.70898c0.18,0.13 0.38961,0.19922 0.59961,0.19922c0.21,0 0.40984,-0.05945 0.58984,-0.18945l18.41016,-13.29492v28.48438c0.00006,0.55226 0.44774,0.99994 1,1h13c3.30163,0 6,-2.69837 6,-6v-44c0,-5.51133 -4.48867,-10 -10,-10h-0.00977c-2.08922,0 -4.21376,0.6577 -6.01172,2.01172l-22.97852,17.31641l-22.97852,-17.31641c-1.79796,-1.35402 -3.9225,-2.01172 -6.01172,-2.01172zM21,22h0.00977c1.67078,0 3.36656,0.5234 4.80859,1.60938l3.18164,2.39844v20.7168l-16,-11.92578v-4.79883c0,-4.43067 3.56933,-8 8,-8zM78.99023,22h0.00977c4.43067,0 8,3.56933 8,8v4.79883l-16,11.92578v-20.7168l3.18164,-2.39844c1.44204,-1.08598 3.13781,-1.60937 4.80859,-1.60937zM30,26.75977l19.26367,14.51758c0.18016,0.18857 0.42686,0.29931 0.6875,0.30859c0.01691,0.00108 0.03384,0.00173 0.05078,0.00195c0.27368,0.00213 0.53627,-0.10799 0.72656,-0.30469l19.27148,-14.52344v20.5625l-19.99023,14.4375l-20.00977,-14.43945zM66.50977,33.27539c-0.11243,-0.00076 -0.22183,0.0364 -0.31055,0.10547l-5.91992,4.45898c-0.14272,0.1078 -0.21709,0.28356 -0.19508,0.46105c0.02201,0.1775 0.13705,0.32977 0.30178,0.39944c0.16473,0.06967 0.35412,0.04616 0.49681,-0.06167l5.91797,-4.45898c0.17457,-0.1271 0.24784,-0.35189 0.18169,-0.55744c-0.06615,-0.20555 -0.25677,-0.34542 -0.4727,-0.34685zM13,36.04688l16,11.92578v0.82227v0.20508v29h-12c-2.22038,0 -4,-1.77962 -4,-4zM87,36.04688v37.95313c0,2.22038 -1.77962,4 -4,4h-12v-28.92969v-0.53516c0.00041,-0.01172 0.00041,-0.02344 0,-0.03516v-0.52734zM58.99219,38.93945c-0.11243,-0.00076 -0.22183,0.0364 -0.31055,0.10547l-1.77734,1.33789c-0.14554,0.10645 -0.22251,0.28301 -0.20142,0.46209c0.02108,0.17908 0.13695,0.33294 0.30323,0.40267c0.16629,0.06973 0.35724,0.04454 0.49975,-0.06593l1.77734,-1.33789c0.17457,-0.1271 0.24784,-0.35189 0.18169,-0.55744c-0.06615,-0.20555 -0.25677,-0.34542 -0.4727,-0.34685zM42.47461,40.05664c-0.21202,0.00892 -0.39532,0.15068 -0.45726,0.35364c-0.06194,0.20296 0.01096,0.42292 0.18187,0.5487l2.04688,1.54297c0.14251,0.11049 0.33347,0.13569 0.49976,0.06595c0.16629,-0.06973 0.28216,-0.2236 0.30324,-0.40269c0.02108,-0.17909 -0.05589,-0.35565 -0.20145,-0.4621l-2.04687,-1.54297c-0.09317,-0.07179 -0.20866,-0.10844 -0.32617,-0.10352zM55.61719,41.48242c-0.1122,-0.00131 -0.22158,0.03515 -0.31055,0.10352l-3.33789,2.51562c-0.15426,0.10307 -0.23877,0.28308 -0.21954,0.46761c0.01923,0.18453 0.13904,0.34324 0.31124,0.41229c0.1722,0.06905 0.36847,0.03709 0.50986,-0.08302l3.33789,-2.51367c0.17286,-0.12759 0.2449,-0.35134 0.17896,-0.55582c-0.06595,-0.20448 -0.25514,-0.34398 -0.46997,-0.34653zM46.11914,42.80078c-0.2131,0.00788 -0.39776,0.15003 -0.45988,0.35403c-0.06212,0.204 0.01195,0.42495 0.18449,0.55027l2.91406,2.19336c0.14139,0.12011 0.33767,0.15207 0.50986,0.08302c0.17219,-0.06905 0.29201,-0.22776 0.31124,-0.41229c0.01923,-0.18453 -0.06528,-0.36453 -0.21954,-0.46761l-2.91406,-2.19531c-0.0929,-0.07249 -0.20842,-0.10984 -0.32617,-0.10547zM16.49219,43.99219c-0.13261,0.00207 -0.25896,0.05673 -0.35127,0.15197c-0.0923,0.09523 -0.14299,0.22324 -0.14092,0.35584v7c-0.00255,0.18032 0.09219,0.34804 0.24794,0.43894c0.15575,0.0909 0.34838,0.0909 0.50413,0c0.15575,-0.0909 0.25049,-0.25863 0.24794,-0.43894v-7c0.00212,-0.13532 -0.0507,-0.26572 -0.1464,-0.36141c-0.0957,-0.0957 -0.22609,-0.14852 -0.36141,-0.1464zM16.49219,53.99219c-0.13261,0.00207 -0.25896,0.05673 -0.35127,0.15197c-0.0923,0.09523 -0.14299,0.22324 -0.14092,0.35584v1c-0.00255,0.18032 0.09219,0.34804 0.24794,0.43894c0.15575,0.0909 0.34838,0.0909 0.50413,0c0.15575,-0.0909 0.25049,-0.25863 0.24794,-0.43894v-1c0.00212,-0.13532 -0.0507,-0.26572 -0.1464,-0.36141c-0.0957,-0.0957 -0.22609,-0.14852 -0.36141,-0.1464zM16.49219,57.99219c-0.13261,0.00207 -0.25896,0.05673 -0.35127,0.15197c-0.0923,0.09523 -0.14299,0.22324 -0.14092,0.35584v2c-0.00255,0.18032 0.09219,0.34804 0.24794,0.43894c0.15575,0.0909 0.34838,0.0909 0.50413,0c0.15575,-0.0909 0.25049,-0.25863 0.24794,-0.43894v-2c0.00212,-0.13532 -0.0507,-0.26572 -0.1464,-0.36141c-0.0957,-0.0957 -0.22609,-0.14852 -0.36141,-0.1464zM16.49219,62.99219c-0.13261,0.00207 -0.25896,0.05673 -0.35127,0.15197c-0.0923,0.09523 -0.14299,0.22324 -0.14092,0.35584v10c0,0.82253 0.67747,1.5 1.5,1.5h7c0.18032,0.00255 0.34804,-0.09219 0.43894,-0.24794c0.0909,-0.15575 0.0909,-0.34838 0,-0.50413c-0.0909,-0.15575 -0.25863,-0.25049 -0.43894,-0.24794h-7c-0.28147,0 -0.5,-0.21853 -0.5,-0.5v-10c0.00212,-0.13532 -0.0507,-0.26572 -0.1464,-0.36141c-0.0957,-0.0957 -0.22609,-0.14852 -0.36141,-0.1464z"></path></g></g></svg>